<?xml version="1.0" encoding="utf-8"?>
<?xml-stylesheet type="text/xsl" href="rss1.xsl"?>
<rss version="2.0" xmlns:atom="http://www.w3.org/2005/Atom" xmlns:content="http://purl.org/rss/1.0/modules/content/" xmlns:dc="http://purl.org/dc/elements/1.1/" xmlns:media="http://search.yahoo.com/mrss/">
<channel>
 <title>Getty</title>
 <link>http://www.gettyimg.com/</link>
 <atom:link href="http://www.gettyimg.com/" rel="self" type="application/rss+xml" />

 
                <item>
                <title><![CDATA[【UPSCALED】Doja Cat - Demons (4K-AI-REMASTERED-H.265)]]></title>
                <link><![CDATA[https://sharemania.us/threads/doja-cat-demons-4k-ai-remastered-h-265.227484/]]></link>
                <description><![CDATA[<article>
<blockquote class="messageText SelectQuoteContainer ugc baseHtml">
<img src="https://i.imgur.com/GdE6uI6.png" class="bbCodeImage LbImage" alt="[​IMG]" data-url="https://i.imgur.com/GdE6uI6.png" style=""><br>
<img src="https://i.imgur.com/Xa1stub.png" class="bbCodeImage LbImage" alt="[​IMG]" data-url="https://i.imgur.com/Xa1stub.png" style=""><br>
<img src="https://i.imgur.com/0UlayzC.png" class="bbCodeImage LbImage" alt="[​IMG]" data-url="https://i.imgur.com/0UlayzC.png" style=""><br>
<br>
<div class="bbCodeBlock bbCodeCode">
<div class="type">Code:</div>
<pre>General
Format                                   : MPEG-4
Format profile                           : Base Media / Version 2
Codec ID                                 : mp42 (mp42/iso2/mp41)
File size                                : 223 MiB
Duration                                 : 3 min 45 s
Overall bit rate                         : 8 286 kb/s
Frame rate                               : 23.976 FPS

Video
ID                                       : 1
Format                                   : HEVC
Format/Info                              : High Efficiency Video Coding
Format profile                           : Main@L5@Main
Codec ID                                 : hvc1
Codec ID/Info                            : High Efficiency Video Coding
Duration                                 : 3 min 45 s
Bit rate                                 : 7 924 kb/s
Width                                    : 3 840 pixels
Height                                   : 2 072 pixels
Display aspect ratio                     : 1.85:1
Frame rate mode                          : Variable
Frame rate                               : 23.976 (24000/1001) FPS
Minimum frame rate                       : 23.974 FPS
Maximum frame rate                       : 23.981 FPS
Color space                              : YUV
Chroma subsampling                       : 4:2:0 (Type 0)
Bit depth                                : 8 bits
Bits/(Pixel*Frame)                       : 0.042
Stream size                              : 213 MiB (96%)
Color range                              : Limited
Color primaries                          : BT.709
Transfer characteristics                 : BT.709
Matrix coefficients                      : BT.709
mdhd_Duration                            : 225559
Codec configuration box                  : hvcC

Audio
ID                                       : 2
Format                                   : AAC LC
Format/Info                              : Advanced Audio Codec Low Complexity
Codec ID                                 : mp4a-40-2
Duration                                 : 3 min 45 s
Source duration                          : 3 min 45 s
Bit rate mode                            : Constant
Bit rate                                 : 353 kb/s
Channel(s)                               : 2 channels
Channel layout                           : L R
Sampling rate                            : 48.0 kHz
Frame rate                               : 46.875 FPS (1024 SPF)
Compression mode                         : Lossy
Stream size                              : 9.56 MiB (4%)
Source stream size                       : 9.56 MiB (4%)
Title                                    : Stereo / Stereo

</pre>
</div>
<div class="bbCodeBlock bbCodeVfcHH HiddenContent">
<div class="attribution type">Hidden Content:</div>
<blockquote>You must reply before you can see the hidden data contained here.</blockquote>
</div>
<div class="messageTextEndMarker">&nbsp;</div>
</blockquote>
</article>]]></description>
                <author><![CDATA[Librious]]></author>
                </item>

                </channel></rss>